<svg id="login_img" xmlns="http://www.w3.org/2000/svg" width="549" height="375.082" viewBox="0 0 549 375.082">
  <g id="OBJECTS" transform="translate(0 0)">
    <path id="Path_961" data-name="Path 961" d="M604.464,107.067c-6.751,29.375-63.467,59.748-86.974,82.355-4.084,3.933-8.2,8.472-8.918,14.1-1.222,10.032,8.579,17.612,17.318,22.687s18.816,11.861,18.656,21.964c-.062,4.263-2.06,8.258-4.37,11.843-9.043,14.09-23.186,24.229-37.963,32.023-25.861,13.6-54.594,20.912-83.3,26.539-49.234,9.649-99.37,14.652-149.469,18.513-51.99,4-104.426,6.786-156.149.161-16.052-2.06-34.609-6.947-40.87-21.911-5.458-13.055,1.115-27.912,8.828-39.773,22.383-34.387,58.509-52.026,87.795-80.75,28.082-27.573,18.576-53.435,9.506-59.829-29.7-20.832,20.181-47.264,78.235-64.207a493.875,493.875,0,0,1,53.417-12.4c44.365-7.625,80.259-6.483,72.964,10.808-15.651,36.955,22.847,28.537,32.46,27.154,32.942-4.744,75.961-13.9,112.363-18.281,33.53-4.04,61.461-4.031,70.788,7.134C604.713,92.335,606.167,99.683,604.464,107.067Z" transform="translate(-56.129 -53.895)" fill="#ab9bf9"/>
    <path id="Path_962" data-name="Path 962" d="M555.8,78.066c-2.069,8.864-7.848,17.22-14.991,23.124-21.126,17.479-52.989,19.824-70.7,40.754A48.28,48.28,0,0,0,458.9,169.4c-.321,4.459,0,9.1-1.177,13.457-2.55,9.64-11.593,16.114-20.671,20.207-18.816,8.472-40.022,10.193-60.64,9.167-7.455-.375-15.347-1.257-21.251-5.823-4.387-3.4-7.134-8.454-9.5-13.475-3.085-6.6-5.734-13.671-5.351-20.939.892-15.16,14.375-26.352,20.3-40.379,2.176-5.163,3.085-11.718-.669-15.882-1.935-2.158-4.762-3.237-7.428-4.388-6.635-2.863-12.993-6.67-17.782-12.075s-7.9-12.556-7.419-19.77c.544-8.026,5.351-15.062,10.657-21.117,44.365-7.625,80.259-6.483,72.964,10.808-15.651,36.955,22.847,28.537,32.46,27.154C476.373,91.612,519.392,82.454,555.8,78.066Z" transform="translate(-83.928 -53.895)" fill="#b4aaf9"/>
    <path id="Path_963" data-name="Path 963" d="M508.607,205.57c-1.222,10.032,8.579,17.612,17.318,22.687s18.816,11.861,18.656,21.964c-.062,4.263-2.06,8.258-4.37,11.843-9.042,14.09-23.186,24.229-37.963,32.023-25.861,13.6-54.594,20.912-83.3,26.539-49.27,9.649-99.405,14.652-149.5,18.513-51.99,4-104.426,6.786-156.149.16-16.052-2.06-34.609-6.947-40.87-21.911-5.458-13.056,1.115-27.912,8.828-39.773,22.383-34.387,58.509-52.026,87.795-80.75,28.082-27.573,18.576-53.435,9.506-59.829-29.7-20.832,20.181-47.264,78.235-64.207a134.935,134.935,0,0,0-11.959,13.055c-7.214,8.971-13.5,20.965-9.016,31.56C242,132.052,263.862,133.5,271.8,147.257c7.241,12.485-.678,28.331-9.979,39.407C249,201.94,233.167,214.808,222.582,231.725c-7.134,11.477-11.432,26.976-3.745,38.105,7.384,10.7,22.187,12.538,35.162,13.011A626.851,626.851,0,0,0,455.94,256.98c10.505-3.139,22.205-7.732,26.066-18,4.093-10.871-2.675-22.722-2.6-34.333,0-12.654,8.276-24.078,18.531-31.524s22.437-11.593,34.244-16.114c23.971-9.239,47.71-20.93,65.349-39.6a90.843,90.843,0,0,0,6.938-8.276c-6.751,29.375-63.467,59.748-86.974,82.355C513.405,195.4,509.285,199.943,508.607,205.57Z" transform="translate(-56.129 -55.944)" fill="#9b8fef"/>
    <path id="Path_964" data-name="Path 964" d="M438.234,68.033c-3.193,9.069-.125,17.042,10.452,17.042a83.888,83.888,0,0,0,17.425-2.247c5.689-1.231,12.779-2.158,17.684-5.413a2.675,2.675,0,0,0-1.329-4.9c-3.674-.08-7.134,1.329-10.7,2.283-4.093,1.1-8.213,2.1-12.387,2.845-3.888.7-8.133,1.516-12.11,1.266-5.645-.366-5.2-5.351-4.4-9.587a2.427,2.427,0,0,0-4.682-1.284Z" transform="translate(-95.809 -55.232)" fill="#b4aaf9"/>
    <path id="Path_965" data-name="Path 965" d="M496.246,73.611a5.538,5.538,0,0,0,2.435,3.21,8.594,8.594,0,0,0,1.543.624,6.769,6.769,0,0,0,2.961,0l1.249-.535a3.9,3.9,0,0,0,1.471-1.347,4.95,4.95,0,0,0,1.115-3.2,6.153,6.153,0,0,0-.713-2.675,3.933,3.933,0,0,0-1.382-1.436,4.066,4.066,0,0,0-1.784-.945,6.376,6.376,0,0,0-3.121,0,5.431,5.431,0,0,0-2.426,1.382,5.03,5.03,0,0,0-1.382,4.887Z" transform="translate(-102.196 -55.325)" fill="#ab9bf9"/>
    <path id="Path_966" data-name="Path 966" d="M517.583,72.784c4.575,0,4.584-7.134,0-7.134S513,72.784,517.583,72.784Z" transform="translate(-104.155 -55.167)" fill="#9b8fef"/>
    <path id="Path_967" data-name="Path 967" d="M609.521,228.455c-3.166-10.345-2.8-21.866,2.345-31.524a39.407,39.407,0,0,1,8.276-10.621c3.309-3.014,7.972-4.566,10.987-7.714,1.356-1.418.446-4.173-1.685-4.066-4.753.241-9.381,4.236-12.815,7.313a43.616,43.616,0,0,0-9.907,12.868,42.7,42.7,0,0,0-1.632,34.966c1.052,2.675,5.351,1.668,4.459-1.222Z" transform="translate(-113.675 -66.951)" fill="#b4aaf9"/>
    <path id="Path_968" data-name="Path 968" d="M647.392,170.361l.259-.214a3.567,3.567,0,0,0,.892-3.451v-.08a3.4,3.4,0,0,0-2.381-2.381h-.08a3.567,3.567,0,0,0-3.451.892l-.214.267a3.781,3.781,0,0,0-1.026,2.479,3.568,3.568,0,0,0,1.026,2.488,3.5,3.5,0,0,0,2.479,1.026l.892-.125a3.5,3.5,0,0,0,1.552-.892Z" transform="translate(-117.927 -65.823)" fill="#ab9bf9"/>
    <path id="Path_969" data-name="Path 969" d="M656.938,159.938c4.307,0,4.316-6.688,0-6.688S652.63,159.938,656.938,159.938Z" transform="translate(-119.259 -64.648)" fill="#9b8fef"/>
    <path id="Path_970" data-name="Path 970" d="M127.986,208.661c-.107,14.5-11.646,20.448-21.75,27.984a181.417,181.417,0,0,0-16.89,14.019c-6.028,5.743-13.466,12.44-16.623,20.306-.785,1.971,2.024,4.2,3.745,2.88,3.852-2.961,6.84-7.009,10.095-10.594s6.59-6.9,10.086-10.148q8.4-7.812,17.5-14.777c9.952-7.625,21.483-16.284,19.432-30.418C133.105,204.675,128.013,205.558,127.986,208.661Z" transform="translate(-56.364 -70.343)" fill="#b4aaf9"/>
    <path id="Path_971" data-name="Path 971" d="M54.934,315.359a3.436,3.436,0,0,0,.49.74,6.458,6.458,0,0,0,1.364,1.24l1.052.437a3.246,3.246,0,0,0,1.784.08,4.2,4.2,0,0,0,2.524-1.2,5.243,5.243,0,0,0,1.124-1.944,4.352,4.352,0,0,0-.437-3.38,5.556,5.556,0,0,0-1.98-1.855,4.584,4.584,0,0,0-2.747-.517,4.138,4.138,0,0,0-2.47,1.186,5.3,5.3,0,0,0-1.106,1.9,4.521,4.521,0,0,0,.437,3.317Z" transform="translate(-54.395 -81.497)" fill="#9b8fef"/>
    <path id="Path_972" data-name="Path 972" d="M66.8,301.218c7.642,0,7.651-11.878,0-11.878S59.152,301.218,66.8,301.218Z" transform="translate(-55.117 -79.378)" fill="#ab9bf9"/>
    <ellipse id="Ellipse_61" data-name="Ellipse 61" cx="247.617" cy="25.433" rx="247.617" ry="25.433" transform="translate(35.907 324.216)" fill="#efece6"/>
    <path id="Path_973" data-name="Path 973" d="M182.364,424.408c-.392,2.764-3.032,9.132-2.06,10.13,1.1,1.141,25.246,2.363,34.948.892,4.61-.553,4.129-4.459-.74-6.242-2.675-.972-14.7-3.05-19.316-4.931q-1.632-5-3.273-10.006a2.417,2.417,0,0,0-.66-1.177,2.471,2.471,0,0,0-1.641-.357,62.228,62.228,0,0,0-6.34.321C182.186,418.942,183.211,418.478,182.364,424.408Z" transform="translate(-67.999 -92.729)" fill="#090d46"/>
    <path id="Path_974" data-name="Path 974" d="M143.142,441.31c-.366,2.675-.178,5.779,1.989,7.339,1.436,1.026,13.769,1.7,15.9-1.257s1.364-6.109,1.106-7.946c-1.275-8.8-1.133-14.875-2.4-23.676a61.689,61.689,0,0,1-9.078,0c-.366,2.809-.571,5.2-1.034,8.026C149.1,427,143.552,438.385,143.142,441.31Z" transform="translate(-63.984 -93.061)" fill="#090d46"/>
    <path id="Path_975" data-name="Path 975" d="M165.876,307.715c-3.05,1.177,29.428-1.293,37.017-3.522S191.371,258.4,191.371,258.4Z" transform="translate(-66.439 -76.029)" fill="#d3d0c9"/>
    <path id="Path_976" data-name="Path 976" d="M149.839,332.037c-.125,13.742-2.675,53.506-.811,69.736,5.779,3.38,13.323.4,13.323.4,4.994-25.077,5.413-42.136,10.407-67.213,2.747-13.8,7.651-61.63,10.166-73.66,1.213.294,2.113-.294,3.326,0,.589,22.945-1.784,40.433-3.166,61.657-1.784,26.967-3.514,40.379-4.548,77.682,6.911,2.051,10.862,1.133,12.654-.651,5.547-16.783,12.485-58.857,15.214-79.144,4.2-31.007,8.142-57.519,2.524-88.285-9.364,3.522-49.671.152-59.526.045-1.784,8.918-1.115,19.218-1.784,28.367C146.673,273.171,149.839,307.727,149.839,332.037Z" transform="translate(-64.466 -73.232)" fill="#4639b9"/>
    <path id="Path_977" data-name="Path 977" d="M214.343,130.416l17.345,42.618c1.248,3.068,2.5,6.144,3.567,9.292,1.159,3.514-9.89,9.809-13.912,6.5-8.249-6.884-12.645-18.665-18.888-27.413S191.175,142.553,191,131.807a10.336,10.336,0,0,1,.847-4.967C196.543,117.637,211.329,123.023,214.343,130.416Z" transform="translate(-69.176 -61.264)" fill="#d3d0c9"/>
    <path id="Path_978" data-name="Path 978" d="M256.954,165.027c-2.675,5.128,2.006,7.562,6.01,4.1,3.317-2.854,4.539-6.242,4.12-9.809A13.644,13.644,0,0,1,256.954,165.027Z" transform="translate(-76.233 -65.305)" fill="#e89e85"/>
    <path id="Path_979" data-name="Path 979" d="M256.776,180.223c1.409-1.908,5.038-8.472,4.985-10.835a18.773,18.773,0,0,1-5.146-2.577c-2.158-1.659-4.61-3.094-6.073-5.351-.615,4.156-2.042,8.677-5.7,10.7s-8.4.954-12.44,2.229c-9.908,3.139-14.268,19.619-1.784,21.786C242.231,198.21,250.935,188.142,256.776,180.223Z" transform="translate(-72.639 -65.537)" fill="#d3d0c9"/>
    <path id="Path_980" data-name="Path 980" d="M224.054,189.122a21.646,21.646,0,0,1,.285-3.95,10.586,10.586,0,0,1,1.7-3.38c.187-.294-.205-.722-.5-.5-2.506,1.891-2.524,4.967-2.247,7.83a.383.383,0,0,0,.758,0Z" transform="translate(-72.663 -67.677)" fill="#e2dfd8"/>
    <path id="Path_981" data-name="Path 981" d="M227.764,189.127c-.8-2.221,0-3.951.82-5.993a.437.437,0,0,0-.633-.49c-2.051,1.561-1.962,4.673-.892,6.777C227.256,189.8,227.951,189.537,227.764,189.127Z" transform="translate(-73.002 -67.824)" fill="#e2dfd8"/>
    <path id="Path_982" data-name="Path 982" d="M175.928,114.06,143.04,131.9s13.537,37.454,12.6,53.265,0,24.577,0,24.577l49.556-5.449s1.088-25.861.606-40.29-1.944-38.8-1.944-38.8Z" transform="translate(-63.989 -60.407)" fill="#6861e2"/>
    <path id="Path_983" data-name="Path 983" d="M165.854,108.486a9.648,9.648,0,0,1-.66,5.145c-1.98,4.191,16.052,13.216,20.511,11.923,2.158-.624,5.351-6.162,5.235-8.409-3.647.4-3.8-1.926-5.627-5.11a19.386,19.386,0,0,1-1.864-6.046q-.954-5.065-1.917-10.139a1.98,1.98,0,0,0-.517-1.195,2.015,2.015,0,0,0-1.186-.375c-2.836-.259-15.74-3.567-15.16-.553C165.559,98.159,165.649,106,165.854,108.486Z" transform="translate(-66.328 -58.07)" fill="#d18774"/>
    <path id="Path_984" data-name="Path 984" d="M167.972,125.183s7.295,9.908,18.388,6.055,4.236-13.377,4.236-13.377l-5.137-4.022s3.291,5.128.446,14c0,0-15.008-10.541-17.933-8.133S167.972,125.183,167.972,125.183Z" transform="translate(-66.547 -60.383)" fill="#6861e2"/>
    <path id="Path_985" data-name="Path 985" d="M138.222,127.867a13.983,13.983,0,0,0-3.621,4.53,13.661,13.661,0,0,0-.722,6.242A51.99,51.99,0,0,0,137.66,155.1c1.962,4.753,4.637,9.212,6.287,14.09,2.212,6.537,2.506,13.555,2.488,20.457-.054,20.421-7.535,83.63-12.619,103.445,12.583,4.173,32.273,3.71,45.355,1.623.25-11.495,2.97-16.944,4.8-28.26,1.15-7.134,6.991-85.752,1.9-109.643-.3-1.436-10.148-23.186-14.884-32.291-3.086-5.93-4.245-11.843-10.166-9.087C155.2,117.968,142.787,123.693,138.222,127.867Z" transform="translate(-62.987 -60.48)" fill="#e2dfd8"/>
    <path id="Path_986" data-name="Path 986" d="M191.316,116.91c5.431.776,15.918,4.842,18.424,9.1,1.6,2.675,2.033,5.939,2.443,9.069,2.559,19.7.125,39.5,1.552,59.312,1.329,18.469,9.64,77,8.026,95.419-10.46,2.087-17.96,1.65-28.412,3.736.107-6.242-2.791-10.032-3.478-26.967-.669-16.551-.392-48.013-.642-54.095-.892-21.447-.936-30,2.747-51.883C194.508,145.839,191.494,130.679,191.316,116.91Z" transform="translate(-68.934 -60.715)" fill="#e2dfd8"/>
    <path id="Path_987" data-name="Path 987" d="M194.084,187.586c-.125,13.564-.294,27.136-.74,40.691s-2.1,27.137-2.113,40.638c0,.892,1.534,1.213,1.7.223,2.212-13.02,1.935-26.887,2.345-40.058.437-13.831.713-27.645,0-41.494a.6.6,0,0,0-1.186,0Z" transform="translate(-69.205 -68.308)" fill="#d3d0c9"/>
    <path id="Path_988" data-name="Path 988" d="M158.04,252.163l8.73.178c2.533,0,5.217.392,7.66-.3a.642.642,0,0,0,0-1.231c-2.426-.7-5.146-.348-7.66-.3-2.907,0-5.814.116-8.73.178a.74.74,0,0,0,0,1.48Z" transform="translate(-65.532 -75.161)" fill="#d3d0c9"/>
    <path id="Path_989" data-name="Path 989" d="M206.57,249.993a34.368,34.368,0,0,0,8.918.1.892.892,0,0,0,0-1.721,34.371,34.371,0,0,0-8.918.1.794.794,0,0,0,0,1.525Z" transform="translate(-70.803 -74.917)" fill="#d3d0c9"/>
    <path id="Path_990" data-name="Path 990" d="M167.136,159.256a24.131,24.131,0,0,0,5.52-.972c1.4-.437,3.3-.892,4.093-2.194a.66.66,0,0,0-.562-.981c-1.409-.089-2.675.892-4.031,1.364a25.48,25.48,0,0,1-5.021,1.159c-1.008.125-1.061,1.694,0,1.623Z" transform="translate(-66.513 -64.849)" fill="#d3d0c9"/>
    <path id="Path_991" data-name="Path 991" d="M176.539,134.47c1.784-4.236.125-6.011,2.934-9.649l6.385,5.85a44.47,44.47,0,0,1,1.739-6.242c2.363,2.1,3.246,4.263,5.351,6.67,1.115-3.915,1.677-7.188,0-11.664s-4.459-5.957-7.946-6.126a27.574,27.574,0,0,1-1.373,12.413c-3.63-2.212-13.457-12.663-18.1-17.122,0,0-3.5,4.066-3.5,6.974C162,119.078,173.48,131.09,176.539,134.47Z" transform="translate(-66.044 -59.816)" fill="#4639b9"/>
    <path id="Path_992" data-name="Path 992" d="M244.705,119.236,228.27,172.109l1.436,1.133,22.624-2.533,18.6-52.329Z" transform="translate(-73.214 -60.874)" fill="#ea9639"/>
    <path id="Path_993" data-name="Path 993" d="M246.663,119.236,229.88,173.242l24.408-2.533,16.819-52.329Z" transform="translate(-73.388 -60.874)" fill="#febc53"/>
    <path id="Path_994" data-name="Path 994" d="M266.187,157.736a15.605,15.605,0,0,0-1.641-5.172c-1.159-2.283-2.381-3.433-3.781-5.582-.7-1.061-2.149-3.291-3.086-2.435-.473,2.033,2.14,4.949,3.086,6.813-2.149-1.213-8.222-4.5-8.918-4.031-.651,1.347.8,2.265,2.069,3.059s5.11,3.567,2.952,3.567c-3-.74-9.06-3.915-9-2.229,1.115,1.944,3.335,2.675,5.19,3.906,1.418.963,3.951,2.122,4.013,3.077-1.561.553-1.623.25-3.264,0s-4.307-.419-3.335.892c.446.58,7.188,3.335,7.83,3.469C264.234,165.182,265.313,161.089,266.187,157.736Z" transform="translate(-75.335 -63.686)" fill="#e89e85"/>
    <path id="Path_995" data-name="Path 995" d="M255.852,116.687l-1.222,4.459,9.167-.5,1.311-4.218-2.675.1s.482-2.5-1.463-2.417-2.372,2.417-2.372,2.417Z" transform="translate(-76.067 -60.412)" fill="#d3d0c9"/>
    <path id="Path_996" data-name="Path 996" d="M166.33,91.908a21.688,21.688,0,0,0,9.372,14.777c4.058,2.6,9.658,3.362,13.617.624a12.485,12.485,0,0,0,3.808-4.512c1.873-3.514,2.568-7.518,3.13-11.459.687-4.842-.892-7.446.205-13.466.892-4.807,2.158-9.408-1.3-12.877-2.39-2.4-9.622-5.493-12.743-6.813-3.308-1.391-6.983-2.47-10.443-1.525-2.952.812-5.306,2.979-7.446,5.163C154.559,71.951,164.475,79.495,166.33,91.908Z" transform="translate(-65.841 -54.155)" fill="#e89e85"/>
    <path id="Path_997" data-name="Path 997" d="M176.641,73.1c9.39.829,9.569-1.008,14.143-1.721,5.538-.892,9.881,2.078,10.924-3.433-3.567-2.149-4.254-5.351-8.186-8.918-3.781-3.407-9.185-5.351-19.824-4.717-7.428.446-14.571,3.415-12.529,10.576-2.417-.152-5.012,2.756-5.038,5.725-.062,6.242,2.274,19.9,6.706,19.548,6.242-.49,4.53-14.108,3.808-18.781a63.654,63.654,0,0,0,10,1.721Z" transform="translate(-65.406 -53.927)" fill="#090d46"/>
    <path id="Path_998" data-name="Path 998" d="M161.756,84.325c-2.292,1.5-2.292,4.459-1.623,6.983a6.786,6.786,0,0,0,5.814,4.8c3.424.143,2.979-3.9,2.764-6.242C168.105,83.4,164.431,82.6,161.756,84.325Z" transform="translate(-65.797 -57.103)" fill="#e89e85"/>
    <ellipse id="Ellipse_62" data-name="Ellipse 62" cx="1.409" cy="2.417" rx="1.409" ry="2.417" transform="translate(112.109 28.942)" fill="#090d46"/>
    <path id="Path_999" data-name="Path 999" d="M195.728,88.277c0,1.338-.624,2.417-1.409,2.417s-1.409-1.079-1.409-2.417.633-2.417,1.409-2.417S195.728,86.948,195.728,88.277Z" transform="translate(-69.387 -57.355)" fill="#090d46"/>
    <path id="Path_1000" data-name="Path 1000" d="M188.157,86c-.535,2.087-1.516,5.681.169,7.518.606.66,1.784.829,2.247,1.6,1.088,1.784-1.784,1.891-2.9,2.006a.892.892,0,0,0,0,1.739c2.069.062,5.172-.838,5-3.469a3.3,3.3,0,0,0-1.427-2.31c-1.026-.785-1.57-.758-1.784-2.3a20.144,20.144,0,0,1,.268-4.566c.08-.892-1.329-1.061-1.543-.214Z" transform="translate(-68.745 -57.31)" fill="#d18774"/>
    <path id="Path_1001" data-name="Path 1001" d="M181.534,103.747a7.134,7.134,0,0,0,5.351,2.274c1.944-.089,4.334-1.275,5-3.166a.49.49,0,0,0-.606-.6c-1.65.66-2.675,2.185-4.619,2.247-1.685.062-3.014-.829-4.361-1.712-.58-.383-1.213.473-.731.954Z" transform="translate(-68.141 -59.127)" fill="#d18774"/>
    <path id="Path_1002" data-name="Path 1002" d="M185.7,108.7a12.591,12.591,0,0,0,2.675.161.383.383,0,0,0,.107-.74,12.3,12.3,0,0,0-2.613-.5c-.606-.062-.749.99-.143,1.079Z" transform="translate(-68.567 -59.709)" fill="#d18774"/>
    <path id="Path_1003" data-name="Path 1003" d="M166.021,86.261a2.479,2.479,0,0,0-3.21-.268,3.933,3.933,0,0,0-1.525,3.647c.107,1.543,1.195,5.244,3.308,4.735a.428.428,0,0,0,.25-.615c-.375-.49-.892-.758-1.293-1.266a5.538,5.538,0,0,1-.776-1.784c-.446-1.641.143-5.27,2.675-3.656.473.3.972-.375.589-.767Z" transform="translate(-65.96 -57.318)" fill="#d18774"/>
    <path id="Path_1004" data-name="Path 1004" d="M176.075,81.631a10.63,10.63,0,0,1,3.968-1.24c1.195-.116,2.363.169,3.567.107a.716.716,0,0,0,.366-1.32c-2.6-1.347-6.242-.169-8.507,1.364a.633.633,0,0,0,.633,1.088Z" transform="translate(-67.471 -56.568)" fill="#090d46"/>
    <path id="Path_1005" data-name="Path 1005" d="M192.69,80.462a7.134,7.134,0,0,1,3.121-.981c1,0,1.659.758,2.675.571a.687.687,0,0,0,.473-.838c-.321-1.266-1.962-1.65-3.139-1.614a8.409,8.409,0,0,0-3.861,1.543.767.767,0,0,0,.776,1.32Z" transform="translate(-69.247 -56.46)" fill="#090d46"/>
    <path id="Path_1006" data-name="Path 1006" d="M177.948,95.649a2.987,2.987,0,0,0,2.827-.517.553.553,0,0,0-.383-.892c-.767,0-1.5.259-2.274.223a.633.633,0,0,0-.169,1.231Z" transform="translate(-67.721 -58.262)" fill="#d18774"/>
    <path id="Path_1007" data-name="Path 1007" d="M196.072,94.925a3.764,3.764,0,0,0,.838,0,.8.8,0,0,0,0-1.6,1.24,1.24,0,0,0-1.293.794.642.642,0,0,0,.455.8Z" transform="translate(-69.677 -58.162)" fill="#d18774"/>
    <path id="Path_1008" data-name="Path 1008" d="M167.124,89.423c-1.186-.419-2.354.116-2.354,1.48a2.863,2.863,0,0,0,2.1,2.827.4.4,0,0,0,.312-.731,3.4,3.4,0,0,1-1.195-1.873c-.143-.713.2-.892.892-.66s.892-.812.285-1.043Z" transform="translate(-66.341 -57.725)" fill="#d18774"/>
    <path id="Path_1009" data-name="Path 1009" d="M173.783,66.768c6.465,3.059,13.287.2,20.092-.125a.348.348,0,0,0,0-.687c-6.751-.357-13.377,3.157-19.815.339C173.738,66.153,173.462,66.617,173.783,66.768Z" transform="translate(-67.301 -55.198)" fill="#1c2872"/>
    <path id="Path_1010" data-name="Path 1010" d="M170.634,62.468c5.725,2.5,11.254.8,17.2.107a.464.464,0,0,0,0-.892c-5.886-.473-10.969,2.292-16.944.134-.392-.143-.678.517-.285.687Z" transform="translate(-66.952 -54.732)" fill="#1c2872"/>
    <path id="Path_1011" data-name="Path 1011" d="M172.682,58.408c3.308,1.454,7.651,1.784,10.853-.134a.375.375,0,0,0-.294-.687c-3.621.954-6.661,1.471-10.336.285-.312-.107-.535.4-.223.535Z" transform="translate(-67.181 -54.292)" fill="#1c2872"/>
    <path id="Path_1012" data-name="Path 1012" d="M160.325,70.6c-2.024,1.784-2.033,5.137-.58,7.3a.366.366,0,0,0,.678-.187c0-2.229-1.195-4.53.58-6.439a.482.482,0,0,0-.678-.678Z" transform="translate(-65.686 -55.691)" fill="#1c2872"/>
    <path id="Path_1013" data-name="Path 1013" d="M163.112,72.088c-.669,2.06-.847,5.27.892,6.884a.455.455,0,0,0,.758-.446c-.205-.945-.722-1.784-.892-2.756a8.668,8.668,0,0,1,0-3.487.375.375,0,0,0-.722-.2Z" transform="translate(-66.11 -55.836)" fill="#1c2872"/>
    <path id="Path_1014" data-name="Path 1014" d="M164.466,66.044a8.426,8.426,0,0,1-.276-2.06,9.593,9.593,0,0,0,0-1.677.241.241,0,0,0-.446-.062c-.6,1.079-.178,2.827.169,3.942a.268.268,0,1,0,.517-.143Z" transform="translate(-66.197 -54.785)" fill="#1c2872"/>
    <path id="Path_1015" data-name="Path 1015" d="M166.067,67.191c.357-.892.767-1.784,1.043-2.729.062-.205-.223-.312-.339-.143a8.731,8.731,0,0,0-1.061,2.773.187.187,0,0,0,.357.1Z" transform="translate(-66.443 -55.014)" fill="#1c2872"/>
    <path id="Path_1016" data-name="Path 1016" d="M167.946,69.981a6.152,6.152,0,0,1,.945-.981,12.7,12.7,0,0,0,1.026-.758c.187-.178,0-.419-.223-.392a3.5,3.5,0,0,0-2.167,1.784c-.134.25.223.562.419.321Z" transform="translate(-66.636 -55.405)" fill="#1c2872"/>
    <rect id="Rectangle_367" data-name="Rectangle 367" width="3.282" height="20.27" transform="translate(137.42 67.894) rotate(15.79)" fill="#090d46"/>
    <path id="Path_1017" data-name="Path 1017" d="M211.676,130.444l-3.166-.9,1.418-1.962,1.4-1.962.169,2.408Z" transform="translate(-71.075 -61.658)" fill="#febc53"/>
    <path id="Path_1018" data-name="Path 1018" d="M.009,0H3.291V.58A1.507,1.507,0,0,1,1.784,2.087H1.507A1.507,1.507,0,0,1,0,.58V.018Z" transform="translate(131.919 87.39) rotate(15.79)" fill="#febc53"/>
    <path id="Path_1019" data-name="Path 1019" d="M211.67,128.028l-1.57-.446,1.4-1.962Z" transform="translate(-71.247 -61.658)" fill="#090d46"/>
    <path id="Path_1020" data-name="Path 1020" d="M208.7,148.624c.562-1.043,7.553-1.784,6.1-3.317-.321-.339-6.242.152-5.814,0,5.582-2.131,7.865-5.172,5.261-4.459-2.292.892-4.628,1.659-6.911,2.586,1.026-1.3,2.158-1.632,3.344-2.586s4.459-3.674,2.675-3.835a31.54,31.54,0,0,0-7.419,4.539c.232-2.033,6.456-6.242,3.567-6.242-2.14,1.525-4.3,3.032-6.439,4.575a6.7,6.7,0,0,0-2.283,3.567c-.4,2.479.3,9.711-.892,11.985s-4.887,5.966-7.33,6.751c.357,7.741,2.55,8.918,8.846,6.028,3.959-1.784,7.785-6.439,8.338-10.826C209.9,156.053,208.532,148.945,208.7,148.624Z" transform="translate(-69.349 -62.707)" fill="#e89e85"/>
    <path id="Path_1021" data-name="Path 1021" d="M134.309,160.095c4.646,10.3,10.006,25.139,17.22,33.834,2.791,3.362,4.646,4.985,9.016,5.092,4.923.116,10.6-5.351,14.268-8.668,9.809-8.846,15.2-14.456,24.024-21.616a90.334,90.334,0,0,1-8.347-13.742,256.243,256.243,0,0,1-28.581,18.228c-1.543-9.506-16.052-47.941-21.59-45.792-5.261,2.024-8.677,4.994-10.122,10.532C129.288,141.368,129.984,150.455,134.309,160.095Z" transform="translate(-62.561 -61.844)" fill="#efebe4"/>
    <path id="Path_1022" data-name="Path 1022" d="M201.347,173.894a1.784,1.784,0,1,1-1.784-1.784A1.784,1.784,0,0,1,201.347,173.894Z" transform="translate(-69.914 -66.69)" fill="#d3d0c9"/>
    <path id="Path_1023" data-name="Path 1023" d="M194.127,178.894a1.784,1.784,0,1,1-1.784-1.784A1.784,1.784,0,0,1,194.127,178.894Z" transform="translate(-69.132 -67.231)" fill="#d3d0c9"/>
    <path id="Path_1024" data-name="Path 1024" d="M163.34,180.218c-2.461,3.389-5.03,8.579-4.084,12.877.2.892,1.373.722,1.65,0,.713-1.873.892-3.951,1.418-5.877A28.482,28.482,0,0,1,165,181.2c.633-1.106-.954-1.962-1.677-.981Z" transform="translate(-65.722 -67.521)" fill="#e2dfd8"/>
    <path id="Path_1025" data-name="Path 1025" d="M166.414,181.835c-1.471,4.593-1.784,10.3.892,14.509a.7.7,0,0,0,1.275-.535c-1.141-4.726-2.131-8.766-.892-13.608a.678.678,0,0,0-1.3-.366Z" transform="translate(-66.398 -67.693)" fill="#e2dfd8"/>
    <rect id="Rectangle_368" data-name="Rectangle 368" width="14.5" height="28.34" transform="translate(308.244 159.497)" fill="#4639b9"/>
    <rect id="Rectangle_369" data-name="Rectangle 369" width="92.851" height="54.558" rx="4.53" transform="translate(269.069 110.878)" fill="#090d46"/>
    <rect id="Rectangle_370" data-name="Rectangle 370" width="83.175" height="46.541" transform="translate(273.902 114.882)" fill="#fad349"/>
    <rect id="Rectangle_371" data-name="Rectangle 371" width="52.302" height="4.04" transform="translate(289.339 187.838)" fill="#090d46"/>
    <path id="Path_1026" data-name="Path 1026" d="M426.792,205.71a2.773,2.773,0,1,0,2.764,2.764A2.773,2.773,0,0,0,426.792,205.71Z" transform="translate(-94.399 -70.326)" fill="#fb2d5d"/>
    <path id="Path_1027" data-name="Path 1027" d="M438.289,207.9c-.544-.428-1.141-.892-1.784-1.3.624-.428,1.222-.892,1.784-1.293,2.934-2.354,4.156-4.37,3.567-5.823s-2.916-1.98-6.653-1.489a37.841,37.841,0,0,0-5.119,1.088c-.767-5.921-2.452-10.7-4.976-10.7s-4.209,4.753-4.976,10.7c-5.743-1.605-10.781-1.917-11.762.4-.812,1.908,1.57,4.557,5.3,7.134-3.728,2.568-6.109,5.217-5.3,7.134.5,1.177,2.033,1.677,4.173,1.677a29.937,29.937,0,0,0,7.589-1.284c.767,5.93,2.461,10.7,4.976,10.7s4.209-4.753,4.976-10.7a37.84,37.84,0,0,0,5.119,1.088,19.847,19.847,0,0,0,2.47.178c2.283,0,3.71-.562,4.182-1.668C442.445,212.27,441.223,210.255,438.289,207.9Zm-2.987-8.962a19.312,19.312,0,0,1,2.345-.16c1.784,0,3,.375,3.3,1.079.419.972-.8,2.729-3.255,4.7-.615.49-1.293.981-2.015,1.471a52,52,0,0,0-5.253-2.961c-.054-1.026-.134-2.042-.25-3.032A37.006,37.006,0,0,1,435.3,198.939Zm-8.463,11.8c-.589.25-1.177.49-1.784.713-.589-.232-1.177-.464-1.784-.713-.892-.4-1.784-.8-2.675-1.213-.045-.945-.071-1.908-.071-2.925s0-1.971.071-2.916c.892-.41,1.73-.812,2.675-1.213.589-.25,1.168-.482,1.784-.713l1.784.713c.892.392,1.784.794,2.675,1.213.045.945.08,1.908.08,2.916s0,1.98-.08,2.925C428.641,209.943,427.758,210.335,426.839,210.737Zm2.6-.125c-.053.785-.116,1.552-.2,2.283-.936-.285-1.882-.6-2.845-.945l.811-.339c.758-.321,1.5-.66,2.212-1Zm-5.681,1.338c-.981.357-1.926.669-2.836.945-.08-.74-.152-1.5-.2-2.283.731.348,1.48.687,2.221,1Zm-4.075-2.907c-1.6-.811-3.041-1.632-4.307-2.443a47.318,47.318,0,0,1,4.307-2.435c0,.812-.045,1.632-.045,2.435S419.616,208.231,419.687,209.042Zm1.043-6.447c.045-.785.116-1.543.2-2.283.892.276,1.855.6,2.827.954l-.8.33C422.211,201.908,421.462,202.247,420.731,202.595Zm5.672-1.338c.963-.348,1.917-.66,2.845-.945.08.731.143,1.489.2,2.283-.731-.339-1.471-.678-2.229-1Zm4.084,2.907c1.552.785,3,1.605,4.307,2.435a49.428,49.428,0,0,1-4.307,2.443c0-.811.045-1.632.045-2.443S430.513,204.985,430.487,204.164Zm-5.4-14.8c1.57,0,3.273,3.87,4.049,9.988-1.311.392-2.675.892-4.049,1.391-1.347-.517-2.675-.99-4.049-1.391C421.819,193.231,423.513,189.361,425.082,189.361Zm-15.865,10.5c.3-.713,1.471-1.079,3.282-1.079a29.088,29.088,0,0,1,7.491,1.266c-.107.99-.187,2-.25,3.023a53.56,53.56,0,0,0-5.244,2.961C410.7,203.451,408.7,201.07,409.218,199.857Zm0,13.492c-.517-1.213,1.463-3.567,5.279-6.171a53.551,53.551,0,0,0,5.244,2.961c.063,1.026.143,2.042.25,3.032C414.06,214.839,409.806,214.794,409.218,213.35Zm15.865,10.5c-1.569,0-3.264-3.879-4.049-9.988,1.338-.4,2.675-.892,4.049-1.382,1.382.526,2.738.99,4.049,1.382C428.346,219.975,426.652,223.846,425.082,223.846Zm15.865-10.5c-.419.981-2.524,1.32-5.645.892a37,37,0,0,1-5.128-1.1c.116-.99.2-2.006.25-3.032a52.009,52.009,0,0,0,5.253-2.961c.722.49,1.4.981,2.015,1.471C440.127,210.621,441.366,212.377,440.947,213.35Z" transform="translate(-92.689 -68.45)" fill="#c43ad6"/>
    <path id="Path_1028" data-name="Path 1028" d="M372.759,213.929l-.669-.589,8.418-9.551-6.046-9.747.758-.473,6.4,10.318Z" transform="translate(-88.78 -69.012)" fill="#fff"/>
    <path id="Path_1029" data-name="Path 1029" d="M393.1,206.843l-12.146-2.631,12.8-9.292.526.731L383.1,203.757l10.184,2.212Z" transform="translate(-89.739 -69.158)" fill="#fff"/>
    <path id="Path_1030" data-name="Path 1030" d="M381.392,221.52l-.892-.062,1.115-17.978,9.488,15.356-.767.464-8-12.957Z" transform="translate(-89.69 -70.085)" fill="#fff"/>
    <path id="Path_1031" data-name="Path 1031" d="M377.3,193.546a2.417,2.417,0,1,1-.7-1.715A2.426,2.426,0,0,1,377.3,193.546Z" transform="translate(-88.819 -68.747)" fill="#c43ad6"/>
    <path id="Path_1032" data-name="Path 1032" d="M384.281,204.8a2.417,2.417,0,1,1-.7-1.715A2.425,2.425,0,0,1,384.281,204.8Z" transform="translate(-89.574 -69.965)" fill="#4639b9"/>
    <path id="Path_1033" data-name="Path 1033" d="M383.121,223.39A2.426,2.426,0,1,1,380.7,221a2.426,2.426,0,0,1,2.417,2.39Z" transform="translate(-89.449 -71.981)" fill="#c43ad6"/>
    <ellipse id="Ellipse_63" data-name="Ellipse 63" cx="2.417" cy="2.417" rx="2.417" ry="2.417" transform="translate(301.039 134.831)" fill="#090d46"/>
    <ellipse id="Ellipse_64" data-name="Ellipse 64" cx="2.417" cy="2.417" rx="2.417" ry="2.417" transform="translate(301.859 123.711)" fill="#4639b9"/>
    <path id="Path_1034" data-name="Path 1034" d="M394.091,220.707a2.426,2.426,0,1,1-2.426-2.417,2.426,2.426,0,0,1,2.426,2.417Z" transform="translate(-90.636 -71.688)" fill="#fb2d5d"/>
    <path id="Path_1035" data-name="Path 1035" d="M374.591,215.777a2.426,2.426,0,1,1-2.426-2.417,2.426,2.426,0,0,1,2.426,2.417Z" transform="translate(-88.525 -71.154)" fill="#090d46"/>
    <rect id="Rectangle_372" data-name="Rectangle 372" width="6.537" height="139.535" transform="translate(198.057 201.277)" fill="#090d46"/>
    <rect id="Rectangle_373" data-name="Rectangle 373" width="6.537" height="139.535" transform="translate(361.643 201.277)" fill="#090d46"/>
    <rect id="Rectangle_374" data-name="Rectangle 374" width="189.938" height="13.35" transform="translate(188.729 191.886)" fill="#4639b9"/>
    <rect id="Rectangle_375" data-name="Rectangle 375" width="19.449" height="3.959" transform="translate(216.196 166.498)" fill="#4639b9"/>
    <path id="Path_1036" data-name="Path 1036" d="M310.9,245.04l8.392,13.18,4.789-2.14L317.8,245.04Z" transform="translate(-82.157 -74.583)" fill="#d3d0c9"/>
    <rect id="Rectangle_376" data-name="Rectangle 376" width="10.969" height="27.52" transform="translate(232.566 118.006) rotate(16.8)" fill="#090d46"/>
    <rect id="Rectangle_377" data-name="Rectangle 377" width="5.214" height="11.599" transform="translate(239.287 108.473) rotate(16.809)" fill="#4639b9"/>
    <rect id="Rectangle_378" data-name="Rectangle 378" width="15.089" height="4.423" transform="translate(222.641 143.761) rotate(16.8)" fill="#4639b9"/>
    <rect id="Rectangle_379" data-name="Rectangle 379" width="5.672" height="10.38" transform="translate(225.867 149.357) rotate(16.8)" fill="#090d46"/>
    <rect id="Rectangle_380" data-name="Rectangle 380" width="9.587" height="17.108" transform="translate(242.106 127.115) rotate(16.809)" fill="#4639b9"/>
    <path id="Path_1037" data-name="Path 1037" d="M338.151,257.059c-.152-2,11.843-26.673-1.73-49.154-4.985-8.258-10.371-8.3-12.485-5.351-1.784,2.47-1.115,6.769,2.631,12.378,4.53,6.777,3.121,24.631-8.267,42.109Z" transform="translate(-82.958 -69.792)" fill="#efebe4"/>
    <rect id="Rectangle_381" data-name="Rectangle 381" width="46.194" height="4.619" transform="translate(212.549 187.267)" fill="#090d46"/>
    <path id="Path_1038" data-name="Path 1038" d="M331.079,262.489s0-11.21-7.919-11.539-8.57,11.539-8.57,11.539Z" transform="translate(-82.556 -75.222)" fill="#4639b9"/>
    <ellipse id="Ellipse_65" data-name="Ellipse 65" cx="2.97" cy="2.97" rx="2.97" ry="2.97" transform="translate(237.304 179.348)" fill="#090d46"/>
    <path id="Path_1039" data-name="Path 1039" d="M331.209,206.27a2.97,2.97,0,1,1-2.97-2.97A2.97,2.97,0,0,1,331.209,206.27Z" transform="translate(-83.712 -70.065)" fill="#090d46"/>
    <path id="Path_1040" data-name="Path 1040" d="M329.7,206.481a1.222,1.222,0,1,1-.358-.873A1.231,1.231,0,0,1,329.7,206.481Z" transform="translate(-83.925 -70.276)" fill="#4639b9"/>
    <rect id="Rectangle_382" data-name="Rectangle 382" width="10.55" height="2.14" transform="translate(351.424 155.279)" fill="#81addf"/>
    <path id="Path_1041" data-name="Path 1041" d="M467.81,254.008a15.16,15.16,0,0,1-3.059,9.167,4.717,4.717,0,0,1-3.781,1.882H444.1a4.726,4.726,0,0,1-3.79-1.882,15.24,15.24,0,0,1,8.267-23.9V230.43h7.91v8.846A15.16,15.16,0,0,1,467.81,254.008Z" transform="translate(-95.831 -73.002)" fill="#b6dbff"/>
    <path id="Path_1042" data-name="Path 1042" d="M467.811,256.2a15.16,15.16,0,0,1-3.059,9.167,4.718,4.718,0,0,1-3.781,1.882H444.1a4.726,4.726,0,0,1-3.79-1.882,15.285,15.285,0,0,1-2.015-14.723h28.483A15.339,15.339,0,0,1,467.811,256.2Z" transform="translate(-95.832 -75.189)" fill="#fb2d5d"/>
    <path id="Path_1043" data-name="Path 1043" d="M443.488,259.119a1,1,0,1,1-1-1A1,1,0,0,1,443.488,259.119Z" transform="translate(-96.291 -75.999)" fill="#fff"/>
    <path id="Path_1044" data-name="Path 1044" d="M460.909,258.01a2.31,2.31,0,1,1-2.31-2.31A2.31,2.31,0,0,1,460.909,258.01Z" transform="translate(-97.893 -75.737)" fill="#fff"/>
    <path id="Path_1045" data-name="Path 1045" d="M454.055,262.583a1.382,1.382,0,1,1-1.373-1.373A1.382,1.382,0,0,1,454.055,262.583Z" transform="translate(-97.352 -76.333)" fill="#fff"/>
    <path id="Path_1046" data-name="Path 1046" d="M468.263,255.752a.892.892,0,1,1-.892-.892A.892.892,0,0,1,468.263,255.752Z" transform="translate(-98.996 -75.646)" fill="#fff"/>
    <path id="Path_1047" data-name="Path 1047" d="M446.784,262.642a.892.892,0,1,1-.892-.892A.892.892,0,0,1,446.784,262.642Z" transform="translate(-96.671 -76.391)" fill="#fff"/>
    <path id="Path_1048" data-name="Path 1048" d="M452.482,254.7a1.516,1.516,0,1,1-1.516-1.516A1.516,1.516,0,0,1,452.482,254.7Z" transform="translate(-97.153 -75.464)" fill="#fff"/>
    <path id="Path_1049" data-name="Path 1049" d="M463.334,264.462a.892.892,0,1,1-.892-.892A.892.892,0,0,1,463.334,264.462Z" transform="translate(-98.462 -76.588)" fill="#fff"/>
    <path id="Path_1050" data-name="Path 1050" d="M379.72,235.22v27.351a2.88,2.88,0,0,1-2.88,2.88H360.85a2.88,2.88,0,0,1-2.88-2.88V235.22Z" transform="translate(-87.251 -73.52)" fill="#b6dbff"/>
    <rect id="Rectangle_383" data-name="Rectangle 383" width="25.05" height="2.729" transform="translate(269.069 158.971)" fill="#81addf"/>
    <path id="Path_1051" data-name="Path 1051" d="M379.72,247.68v16.239a2.88,2.88,0,0,1-2.88,2.88H360.85a2.88,2.88,0,0,1-2.88-2.88V247.68Z" transform="translate(-87.251 -74.869)" fill="#c43ad6"/>
    <path id="Path_1052" data-name="Path 1052" d="M366.735,254.437a2.247,2.247,0,1,1-2.247-2.247A2.247,2.247,0,0,1,366.735,254.437Z" transform="translate(-87.714 -75.357)" fill="#fff"/>
    <path id="Path_1053" data-name="Path 1053" d="M374.156,252.8a.954.954,0,1,1-.276-.68.963.963,0,0,1,.276.68Z" transform="translate(-88.795 -75.319)" fill="#fff"/>
    <ellipse id="Ellipse_66" data-name="Ellipse 66" cx="1.204" cy="1.204" rx="1.204" ry="1.204" transform="translate(280.385 183.905)" fill="#fff"/>
    <ellipse id="Ellipse_67" data-name="Ellipse 67" cx="0.455" cy="0.455" rx="0.455" ry="0.455" transform="translate(276.765 186.705)" fill="#fff"/>
    <path id="Path_1054" data-name="Path 1054" d="M378.468,257.83a1.4,1.4,0,1,1-.413-.993,1.409,1.409,0,0,1,.413.993Z" transform="translate(-89.165 -75.816)" fill="#fff"/>
    <path id="Path_1055" data-name="Path 1055" d="M375.009,264.964a.7.7,0,1,1-.7-.7.7.7,0,0,1,.7.7Z" transform="translate(-88.943 -76.663)" fill="#fff"/>
    <path id="Path_1056" data-name="Path 1056" d="M421.709,262.445a2.889,2.889,0,0,1-2.889,2.88H402.83a2.88,2.88,0,0,1-2.88-2.88l3.246-9.114,3.683-10.362v-8.5h7.91v8.5l3.674,10.327Z" transform="translate(-91.795 -73.439)" fill="#b6dbff"/>
    <rect id="Rectangle_384" data-name="Rectangle 384" width="10.55" height="2.14" transform="translate(313.755 158.918)" fill="#81addf"/>
    <path id="Path_1057" data-name="Path 1057" d="M421.709,264.734a2.889,2.889,0,0,1-2.889,2.88H402.83a2.88,2.88,0,0,1-2.88-2.88l3.246-9.114h15.267Z" transform="translate(-91.795 -75.728)" fill="#ea9639"/>
    <path id="Path_1058" data-name="Path 1058" d="M408.459,260.576a1.115,1.115,0,1,1-1.115-1.106,1.115,1.115,0,0,1,1.115,1.106Z" transform="translate(-92.475 -76.145)" fill="#fff"/>
    <ellipse id="Ellipse_68" data-name="Ellipse 68" cx="1.935" cy="1.935" rx="1.935" ry="1.935" transform="translate(320.684 182.318)" fill="#fff"/>
    <path id="Path_1059" data-name="Path 1059" d="M411.869,265.379a1.159,1.159,0,1,1-1.15-1.159A1.159,1.159,0,0,1,411.869,265.379Z" transform="translate(-92.834 -76.659)" fill="#fff"/>
    <path id="Path_1060" data-name="Path 1060" d="M420.733,264.916a.687.687,0,1,1-.687-.7.7.7,0,0,1,.687.7Z" transform="translate(-93.896 -76.659)" fill="#fff"/>
    <path id="Path_1061" data-name="Path 1061" d="M405.135,264.4a.678.678,0,1,1-.678-.678A.678.678,0,0,1,405.135,264.4Z" transform="translate(-92.21 -76.605)" fill="#fff"/>
    <path id="Path_1062" data-name="Path 1062" d="M413.232,305.091c1.213-3.781,3.112-7.535,2.729-11.486,1.222-.571,2.328.972,2.809,2.229,1.561,4.058,3.139,8.231,3.148,12.574,0,3.728-1.141,7.366-1.3,11.094-.241,5.351,1.587,10.63,2.122,15.989.892,9.283-2.051,18.576-1.668,27.9.125,3.068.615,6.135.419,9.212-.268,4.263-1.855,8.427-1.543,12.69.134,1.7.33,3.879-1.195,4.646-2.078-5.574-4.165-11.2-4.887-17.1-.482-3.879-.357-7.812-.508-11.718-.125-3.478-.464-6.938-.812-10.4-.749-7.678-3.032-16.712-2.007-24.372C411.475,319.3,411.029,311.967,413.232,305.091Z" transform="translate(-92.913 -79.826)" fill="#3c6a84"/>
    <path id="Path_1063" data-name="Path 1063" d="M409.564,372.917c-.437-4.1-.205-8.249-.294-12.369-.214-9.809-2.238-19.4-3.014-29.152s-.178-19.958,4.459-28.537a2.167,2.167,0,0,1,.892,1.668q2.051,10.3,4.075,20.609c1.525,7.741,3.068,15.615,2.372,23.48-.383,4.3-1.427,8.525-1.65,12.841-.606,11.254,4.325,22.624,1.784,33.6-.107.437-2.622-2.675-2.836-3.094a49.881,49.881,0,0,1-2.479-5.975A53.593,53.593,0,0,1,409.564,372.917Z" transform="translate(-92.447 -80.841)" fill="#4a79a0"/>
    <path id="Path_1064" data-name="Path 1064" d="M397.536,378.863c-2.542-2.506-6.456-2.836-9.694-4.343a14.161,14.161,0,0,1-7.981-11.5c-.49-6.019,2.773-12.815-.776-17.7s-11.388-4.325-14.857-9.051c-3.317-4.566-1.177-10.22-1.962-15.811-1.061-7.571-16.418-16.355-8.3-22.2,2.809-2.024,6.314-.892,8.178,2.06s4.459,6.742,6.412,9.6c5.77,8.436,18.379,9.364,20.8,19.289.669,2.675.232,5.672,1.355,8.231,2.782,6.367,13.3,6.679,15.365,13.323,1.008,3.2-.473,6.59-.892,9.925a15.963,15.963,0,0,0,5.627,14,12.165,12.165,0,0,1,3.068,2.889c1.507,2.515.232,5.681-.392,8.543-1.168,5.4.517,10.22,3.166,14.812C405.463,406.615,401.9,383.17,397.536,378.863Z" transform="translate(-86.563 -80.232)" fill="#6392c1"/>
    <path id="Path_1065" data-name="Path 1065" d="M359.744,307c6.18,5.351,8.186,14.152,13.876,20.047,3.638,3.772,7.7,6.893,10.505,11.415,2.631,4.254,3.175,9.435,5.912,13.608,2.559,3.9,7.134,5.957,9.5,10.006,1.569,2.72,1.73,5.886,2.755,8.793a27.713,27.713,0,0,0,2.782,5.288c3.184,5.11,2.542,9.934,3.612,15.526.642,3.389,2.078,6.162,5.19,7.812a.45.45,0,1,0,.455-.776c-5.788-3.647-4.227-10.594-5.288-16.293-.838-4.53-4.1-7.625-5.609-11.869-1.454-4.093-1.676-8.142-4.709-11.5-1.471-1.632-3.273-2.925-4.878-4.414a19.681,19.681,0,0,1-5.208-8.374c-1.347-3.692-2.568-7.134-4.958-10.3-2.854-3.808-6.626-6.617-9.809-10.095-5.279-5.761-7.3-14.634-13.519-19.467-.419-.321-1.008.232-.6.6Z" transform="translate(-87.429 -81.213)" fill="#fff"/>
    <path id="Path_1066" data-name="Path 1066" d="M420.809,369.039c.669-3.933-.651-7.9-1.008-11.878s.7-8.659,4.307-10.362c1.213-.562,2.6-.731,3.71-1.454,2.363-1.525,2.675-4.816,2.613-7.625-.089-3.924-.285-7.91.74-11.7,3.005-11.12,11.709-6.332,14.732-11.45,5.351-8.989,7.758-16.052,12.1-15.071,6.849,1.587,1.864,11.968.223,19.3-.678,3.032-1.659,6.126-1.115,9.185s2.675,6.1,2.069,9.221c-.8,4.191-5.761,5.9-8.793,8.918a11.754,11.754,0,0,0-2.345,12.931c1.177,2.55,3.362,5.074,2.675,7.794-1.5,5.7-11.771,2.559-15.035,7.464-2.247,3.371.473,8.258-1.355,11.878s-7.58,5.993-10.193,9.417c-2.4,3.139-2.435,4.9-5.841,1.1C409.956,387.374,419.266,378.144,420.809,369.039Z" transform="translate(-93.41 -80.467)" fill="#6392c1"/>
    <path id="Path_1067" data-name="Path 1067" d="M422.871,394.544a22.856,22.856,0,0,1,5.03-15.793c1.837-2.31,3.986-4.459,5.19-7.214,1.329-3.023.954-5.966.455-9.132-1.017-6.51.25-9.631,4.343-14.473,1.578-1.864,3.13-3.79,3.71-6.242,1.15-4.824-1.6-9.81,3.844-12.922,2.113-1.186,4.182-1.935,5.351-4.165,1.784-3.219.892-7.009,3.014-10.139.339-.49-.428-1.088-.82-.633-2,2.274-1.7,4.762-2.443,7.535-1.463,5.484-5.7,4.94-8.7,8.543-2,2.39-1.311,5.19-1.231,8.026.16,5.636-3.246,8.267-6.242,12.4-5.226,7.081,1.1,14.75-2.934,21.982-2.194,3.924-5.805,6.733-7.7,10.871a20.68,20.68,0,0,0-1.748,11.361C422.05,395.07,422.871,395.106,422.871,394.544Z" transform="translate(-94.161 -82.011)" fill="#fff"/>
    <path id="Path_1068" data-name="Path 1068" d="M435.827,436.736H399.969L395.18,391.3h45.436Z" transform="translate(-91.279 -90.413)" fill="#fad349"/>
    <path id="Path_1069" data-name="Path 1069" d="M340.225,436.886H302.11l-2.88-44.2H343.1Z" transform="translate(-80.894 -90.563)" fill="#d3d0c9"/>
    <rect id="Rectangle_385" data-name="Rectangle 385" width="48.307" height="8.142" transform="translate(216.116 293.976)" fill="#090d46"/>
    <path id="Path_1070" data-name="Path 1070" d="M341.627,363.95H300.32l-2.88,17.488H344.5Z" transform="translate(-80.7 -87.453)" fill="#090d46"/>
    <path id="Path_1071" data-name="Path 1071" d="M337.181,381.438V363.95H306.79v17.488" transform="translate(-81.712 -87.453)" fill="#4639b9"/>
    <path id="Path_1072" data-name="Path 1072" d="M534.448,145.83c-6.991,12.841-9.025,22.294-14.536,35.858-1.195,2.934-5.413,9.158-6.4,12.164-1.106,3.344,8.989,7.812,12.824,4.61,7.865-6.563,11.085-15.16,17.042-23.5s10.7-17.978,10.924-28.224a9.808,9.808,0,0,0-.811-4.735C548.949,133.229,539.4,136.7,534.448,145.83Z" transform="translate(-104.077 -62.882)" fill="#d3d0c9"/>
    <path id="Path_1073" data-name="Path 1073" d="M495.039,178.474c2.559,4.887-1.917,7.205-5.734,3.915-3.157-2.729-4.325-5.921-3.924-9.319C487.512,176.066,490.544,168.549,495.039,178.474Z" transform="translate(-101.033 -66.793)" fill="#e89e85"/>
    <path id="Path_1074" data-name="Path 1074" d="M493.713,193.017c-1.338-1.784-6.537-8.142-6.483-10.4a17.836,17.836,0,0,0,4.914-2.461c2.06-1.578,4.388-2.943,5.788-5.128,2.675,4.548,3.8,6.242,7.295,8.213s6.439,1.418,10.291,2.675c9.444,2.987,15.606,17.006,3.674,19.012C511.718,206.153,499.287,200.57,493.713,193.017Z" transform="translate(-101.242 -67.006)" fill="#d3d0c9"/>
    <path id="Path_1075" data-name="Path 1075" d="M527.344,201.437a20.4,20.4,0,0,0-.276-3.763,10.051,10.051,0,0,0-1.623-3.219c-.178-.276.2-.7.473-.482,2.39,1.784,2.408,4.744,2.14,7.464a.357.357,0,0,1-.713,0Z" transform="translate(-105.373 -69.049)" fill="#e2dfd8"/>
    <path id="Path_1076" data-name="Path 1076" d="M523.9,201.443c.767-2.122,0-3.772-.785-5.716a.41.41,0,0,1,.606-.464c1.962,1.489,1.873,4.459.892,6.465-.187.366-.82.107-.678-.285Z" transform="translate(-105.124 -69.189)" fill="#e2dfd8"/>
    <rect id="Rectangle_386" data-name="Rectangle 386" width="10.059" height="2.042" transform="translate(381.578 85.496) rotate(-21.2)" fill="#81addf"/>
    <path id="Path_1077" data-name="Path 1077" d="M491.476,148.38l13.189,34.012a3.773,3.773,0,0,1-7.036,2.729L484.44,151.109Z" transform="translate(-100.94 -64.121)" fill="#b6dbff"/>
    <path id="Path_1078" data-name="Path 1078" d="M496.876,162.31l8.374,21.59a3.773,3.773,0,1,1-7.036,2.729l-8.374-21.59Z" transform="translate(-101.524 -65.629)" fill="#c43ad6"/>
    <path id="Path_1079" data-name="Path 1079" d="M495.423,167.492a1.133,1.133,0,1,1-.6-.632,1.141,1.141,0,0,1,.6.632Z" transform="translate(-101.89 -66.111)" fill="#fff"/>
    <path id="Path_1080" data-name="Path 1080" d="M499.467,174.04a1.5,1.5,0,1,1-1.944-.892,1.516,1.516,0,0,1,1.944.892Z" transform="translate(-102.251 -66.792)" fill="#fff"/>
    <path id="Path_1081" data-name="Path 1081" d="M503.34,185.088a1.32,1.32,0,1,1-1.708-.754A1.32,1.32,0,0,1,503.34,185.088Z" transform="translate(-102.709 -68.003)" fill="#fff"/>
    <path id="Path_1082" data-name="Path 1082" d="M500.124,180.643a.892.892,0,1,1-.674-.77A.892.892,0,0,1,500.124,180.643Z" transform="translate(-102.445 -67.527)" fill="#fff"/>
    <path id="Path_1083" data-name="Path 1083" d="M497.284,170.1a.455.455,0,0,1,.6.259.473.473,0,0,1-.267.606.463.463,0,0,1-.33-.865Z" transform="translate(-102.298 -66.468)" fill="#fff"/>
    <path id="Path_1084" data-name="Path 1084" d="M502.642,181.546a.473.473,0,1,1-.269.244.473.473,0,0,1,.269-.244Z" transform="translate(-102.876 -67.708)" fill="#fff"/>
    <path id="Path_1085" data-name="Path 1085" d="M485.39,171.92a14.911,14.911,0,0,1,1.561-4.931c1.106-2.185,7.9-5.235,8.784-4.405.071,1.088-4,3.086-4.9,4.851,1.4.6,7.518-3.763,8.285-2.675.615,1.284-8.151,5.449-6.091,5.44,2.854-.713,7.482-3.469,7.411-1.864-2.1,1.694-6.876,3.977-6.929,4.887,1.141-.383,6.2-2.158,5.27-.892a27.456,27.456,0,0,1-5.27,3.112C487.825,177.4,486.219,175.112,485.39,171.92Z" transform="translate(-101.042 -65.643)" fill="#e89e85"/>
    <path id="Path_1086" data-name="Path 1086" d="M544.34,83.65c-1.855,1.837-5.85,4.459-2.345,10.443,1.079,1.784,2.122,3.763,1.739,5.85-.571,3.112-.232,2.443-1.534,4.12-1.48,1.926-3.567,4.842-.749,7.295.8.713,5.074,3.621,2.755,6.581a9.738,9.738,0,0,0-.892,10.139c1.15,2.229,1.257,3.87,2.3,6.144,1.338,2.916.731,6.43,2.006,9.364a3.335,3.335,0,0,0,1.3,1.632,3.175,3.175,0,0,0,1.275.357c3.46.419,7.134-1.088,10.362.143,2.613.981,4.3,3.487,6.528,5.163,3.219,2.417,7.473,3.014,11.495,2.88,4.459-.143,9.043-1.159,12.485-3.977s3.942-6.287,5.52-10.443c2.55-6.706-4.94-9.738-4.236-14.607.517-3.567,3.656-6.421,2.675-8.748a16.169,16.169,0,0,0-2.577-4.459c-2.764-3.273-1.507-6.706-.473-8.766s1.463-4.691.178-6.608a18.317,18.317,0,0,0-2.675-2.586c-1.391-1.355-2.14-4.459-1.9-6.394,1.275-10.345-5.841-10.166-7.7-11.058-1.382-.669-.446-5.565-11.1-5.03-4.289.223-7.33,4.37-13.894,3.567C545.25,73.493,547.2,80.814,544.34,83.65Z" transform="translate(-106.959 -55.751)" fill="#fb2d5d"/>
    <path id="Path_1087" data-name="Path 1087" d="M568.724,427.13c.383,2.631,2.889,8.695,1.971,9.658-1.052,1.088-24.078,2.247-33.325.892-4.4-.535-3.567-3.246,1.052-4.949,2.533-.892,6.323-1.338,11.762-2.88C553.51,431.179,568.724,427.13,568.724,427.13Z" transform="translate(-106.355 -94.291)" fill="#090d46"/>
    <path id="Path_1088" data-name="Path 1088" d="M560.169,417.174s2.122,7.036,0,8.579-8.079,2.675-8.079,2.675a8.784,8.784,0,0,0,3.264,3.683c2.408,1.561,16.7-1.07,16.7-1.07a61.078,61.078,0,0,1-2.533-13.011C569.239,412.126,559.884,414.142,560.169,417.174Z" transform="translate(-108.261 -92.895)" fill="#e89e85"/>
    <path id="Path_1089" data-name="Path 1089" d="M595.931,442.9c.731,4.236-1.248,7.081-3.567,8.026-2.675,1.1-7.83-.41-10.175-2.88-3.737-3.951-2.631-10.541-2.372-13.938s12.574-2.247,13.787,1.2C595.352,440.2,595.459,440.184,595.931,442.9Z" transform="translate(-111.224 -94.824)" fill="#090d46"/>
    <path id="Path_1090" data-name="Path 1090" d="M580.947,418.284s-.892,11.432-1.079,13.68,1.4,7.348,7.8,6.867c6.091-.464,7.134-3.139,5.351-7.651s-3.4-6.884-3.424-14.313S581.545,412.194,580.947,418.284Z" transform="translate(-111.267 -92.695)" fill="#e89e85"/>
    <path id="Path_1091" data-name="Path 1091" d="M589.016,337.652c.116,13.1-1.971,46.666-1.784,66.49-5.5,3.219-12.7.383-12.7.383-1.73-23.605-4-42.725-6.617-66.972-1.784-16.382-3.977-55.7-6.376-67.168-1.168.276.571,39.71,1.908,59.945,1.694,25.71,4.869,37.169,5.859,72.733-6.59,1.953-10.362,1.079-12.074-.624-2.756-19.4-10.55-52.32-13.171-71.68-4.013-29.571-10.068-58.982-4.708-88.339,8.918,3.362,43.233.508,52.614.4,1.721,8.507,1.061,18.326,1.721,27.047C594.59,281.533,589.016,314.475,589.016,337.652Z" transform="translate(-106.654 -74.299)" fill="#4639b9"/>
    <path id="Path_1092" data-name="Path 1092" d="M566.286,129.88l31.355,17.051s-12.9,35.671-12.021,50.831,0,23.427,0,23.427L538.356,216s-1.034-24.648-.571-38.408,7.589-36.91,7.589-36.91Z" transform="translate(-106.7 -62.119)" fill="#6861e2"/>
    <path id="Path_1093" data-name="Path 1093" d="M579.207,122.855c.7,2.2.981,5.351,1.516,6.483,1.891,3.986-15.285,12.592-19.521,11.361-2.069-.6-5.083-5.868-5-8.026,3.478.383,3.62-1.837,5.351-4.869a18.167,18.167,0,0,0,1.784-5.77q.892-4.833,1.783-9.658a1.935,1.935,0,0,1,.5-1.15,1.908,1.908,0,0,1,1.124-.348c2.675-.259,12.538-4.735,12.413-1.837C578.815,118.709,578.316,120.046,579.207,122.855Z" transform="translate(-108.706 -59.758)" fill="#d18774"/>
    <path id="Path_1094" data-name="Path 1094" d="M578.14,140.481s-6.956,9.453-17.523,5.77-4.057-12.717-4.057-12.717l4.9-3.835s-3.139,4.887-.419,13.377c0,0,14.268-10.05,17.086-7.749S578.14,140.481,578.14,140.481Z" transform="translate(-108.531 -62.099)" fill="#6861e2"/>
    <path id="Path_1095" data-name="Path 1095" d="M599.583,140.347c1.373,1.248,0,35.046-3.8,40.638-3.692,5.449-4.459,29.749-2.363,35.992,14,41.806,14,61.14,14,80.4-11.994,3.977-32.478,6.242-44.963,4.254-.232-10.96-2.1-18.727-3.852-29.544-1.1-6.813-5.663-78.761-.811-101.537.285-1.373,9.676-22.116,14.188-30.784,2.943-5.663,4.049-11.3,9.694-8.668C587.035,133.614,595.195,136.37,599.583,140.347Z" transform="translate(-108.642 -62.179)" fill="#e2dfd8"/>
    <path id="Path_1096" data-name="Path 1096" d="M555.322,132.59c-5.172.74-12.217,4.307-13.376,6.118-1.632,2.524-.892,7.491-1.784,11.486-3.077,13.965-9.1,13.314-9.1,22.936,0,11.718,4.94,18.085,5.582,38.569.553,17.639-13.029,44.892-6.447,87.393a95.063,95.063,0,0,0,23.293,2.292,194.4,194.4,0,0,1,2.14-31.123c2.14-15.6,1.364-40.727,1.605-46.524.838-20.448.892-28.6-2.613-49.466C552.281,160.172,555.153,145.717,555.322,132.59Z" transform="translate(-105.697 -62.412)" fill="#e2dfd8"/>
    <path id="Path_1097" data-name="Path 1097" d="M555.734,199.946c.125,12.931.276,25.861.7,38.792s2.042,25.915,2.042,38.792c0,.892-1.462,1.168-1.623.223-2.114-12.413-1.846-25.638-2.238-38.194-.419-13.189-.678-26.378,0-39.559a.571.571,0,0,1,1.133,0Z" transform="translate(-108.49 -69.654)" fill="#d3d0c9"/>
    <path id="Path_1098" data-name="Path 1098" d="M588.581,261.544c-2.773.054-5.556.125-8.329.169-2.408,0-4.967.375-7.295-.285a.615.615,0,0,1,0-1.177c2.31-.66,4.9-.33,7.295-.285,2.773,0,5.556.107,8.329.169a.7.7,0,0,1,0,1.409Z" transform="translate(-110.473 -76.185)" fill="#d3d0c9"/>
    <path id="Path_1099" data-name="Path 1099" d="M543.188,259.475a32.4,32.4,0,0,1-8.463.089.892.892,0,0,1,0-1.632,32.4,32.4,0,0,1,8.463.1.749.749,0,0,1,0,1.445Z" transform="translate(-106.325 -75.953)" fill="#d3d0c9"/>
    <path id="Path_1100" data-name="Path 1100" d="M580.73,172.97a22.928,22.928,0,0,1-5.261-.892c-1.338-.419-3.148-.838-3.906-2.087a.624.624,0,0,1,.535-.892c1.347-.089,2.595.892,3.852,1.293a24.306,24.306,0,0,0,4.78,1.106c.963.125,1.017,1.614,0,1.543Z" transform="translate(-110.362 -66.363)" fill="#d3d0c9"/>
    <path id="Path_1101" data-name="Path 1101" d="M569.285,149.337c-1.694-4.049-.116-5.734-2.791-9.2l-6.091,5.574a43.043,43.043,0,0,0-1.659-5.957c-2.256,2.007-3.1,4.066-5.065,6.358-1.052-3.728-1.587-6.849,0-11.12s4.271-5.672,7.58-5.841a26.209,26.209,0,0,0,1.311,11.869c3.46-2.113,12.966-10.452,16.275-16.337,0,0,4.316,3.888,4.316,6.662C583.16,134.659,572.2,146.109,569.285,149.337Z" transform="translate(-108.325 -61.556)" fill="#4639b9"/>
    <ellipse id="Ellipse_69" data-name="Ellipse 69" cx="9.818" cy="9.818" rx="9.818" ry="9.818" transform="translate(409.944 81.665) rotate(-39.58)" fill="#090d46"/>
    <rect id="Rectangle_387" data-name="Rectangle 387" width="2.943" height="17.835" transform="translate(424.427 91.493) rotate(-14.37)" fill="#090d46"/>
    <path id="Path_1102" data-name="Path 1102" d="M536.329,143.974a7.955,7.955,0,1,1-9.685-5.734A7.955,7.955,0,0,1,536.329,143.974Z" transform="translate(-104.86 -62.997)" fill="#b6dbff"/>
    <path id="Path_1103" data-name="Path 1103" d="M532,165.494l2.443,9.524a2.081,2.081,0,0,0,4.031-1.034l-2.435-9.524Z" transform="translate(-106.087 -65.862)" fill="#fad349"/>
    <path id="Path_1104" data-name="Path 1104" d="M523.775,148.407l5.27,3.121a.776.776,0,0,0,.785-1.329l-5.27-3.112a.768.768,0,1,0-.785,1.32Z" transform="translate(-105.156 -63.97)" fill="#fff"/>
    <path id="Path_1105" data-name="Path 1105" d="M525,143.637l8.2,4.851a.768.768,0,0,0,.785-1.32l-8.2-4.851a.768.768,0,1,0-.785,1.32Z" transform="translate(-105.289 -63.453)" fill="#fff"/>
    <path id="Path_1106" data-name="Path 1106" d="M529.372,141.97l2.809,1.659a.768.768,0,1,0,.785-1.32l-2.809-1.668a.776.776,0,0,0-.785,1.329Z" transform="translate(-105.769 -63.276)" fill="#fff"/>
    <path id="Path_1107" data-name="Path 1107" d="M534.317,169.33c-.446-.214-7.6-.223-7.473-1.266.1-.829,6.653-.7,5.458-.829-4.263-.455-8.026-1.1-7.063-1.7,1.382-.892,5.039-.33,7.723-.7-1.427-.651-3.3-.49-4.744-.571s-5.351-.152-4.04-1.284a30.036,30.036,0,0,1,8.267-.678c-1.32-1.436-8.5-1.2-6.242-2.836,2.506,0,5.012-.08,7.518-.1a6.429,6.429,0,0,1,3.781,1.48c1.694,1.685,3.228,4.789,4.361,6.947,1.329,2.515,7.3,5.547,11.709,9.221,4.075,6.171,1.213,12.057-3.986,7.972-2.113-1.65-5.538-7.33-8.463-9.622-1.552-1.213-3.175-.544-4.182-1.605C536.092,172.87,534.638,169.482,534.317,169.33Z" transform="translate(-105.212 -65.31)" fill="#e89e85"/>
    <path id="Path_1108" data-name="Path 1108" d="M599.441,176.478c-4,12.155-4.272,15.428-11.263,26.2-2.274,3.487-4.9,5.574-10.4,3.8-4.459-1.436-25.611-18.032-34.03-24.863a85.692,85.692,0,0,0,7.964-13.1A242.623,242.623,0,0,0,578.966,185.9c1.471-9.06,5.716-49.663,16.89-46.5,5.172,1.462,7.937,6.991,8.026,12.485C604.016,157.181,602.91,165.973,599.441,176.478Z" transform="translate(-107.359 -63.13)" fill="#efebe4"/>
    <path id="Path_1109" data-name="Path 1109" d="M548.91,186.917a1.685,1.685,0,1,0,1.685-1.677A1.686,1.686,0,0,0,548.91,186.917Z" transform="translate(-107.917 -68.111)" fill="#d3d0c9"/>
    <ellipse id="Ellipse_70" data-name="Ellipse 70" cx="1.677" cy="1.677" rx="1.677" ry="1.677" transform="translate(447.137 121.383)" fill="#d3d0c9"/>
    <path id="Path_1110" data-name="Path 1110" d="M584.859,192.95c2.345,3.228,4.8,8.178,3.9,12.28-.187.892-1.311.687-1.578,0-.678-1.784-.8-3.763-1.356-5.609a27.524,27.524,0,0,0-2.559-5.734c-.606-1.052.892-1.873,1.6-.936Z" transform="translate(-111.62 -68.901)" fill="#e2dfd8"/>
    <path id="Path_1111" data-name="Path 1111" d="M582.249,194.493c1.409,4.379,1.73,9.809-.838,13.822a.669.669,0,0,1-1.213-.508c1.079-4.459,2.033-8.356.811-12.975a.643.643,0,0,1,1.24-.339Z" transform="translate(-111.302 -69.061)" fill="#e2dfd8"/>
    <path id="Path_1112" data-name="Path 1112" d="M578.439,108.99c-.972,6.59-6.1,11.031-9.97,13.51s-6.126,4.254-9.908,1.65a24.121,24.121,0,0,1-5.44-5.9,23.373,23.373,0,0,1-3.094-9.034c-.66-4.619.767-7.874-.321-13.608-.892-4.584-1.052-8.213,1.24-12.28,3.763-6.679,14.268-6.242,20.662-5.226a11.388,11.388,0,0,1,7.134,4.816C583.861,90.29,580.169,97.147,578.439,108.99Z" transform="translate(-107.938 -56.451)" fill="#e89e85"/>
    <path id="Path_1113" data-name="Path 1113" d="M567.574,113.286a5.6,5.6,0,0,0,2.461.134,1.257,1.257,0,0,0,0-2.4,5.609,5.609,0,0,0-2.461.134,1.115,1.115,0,0,0,0,2.131Z" transform="translate(-109.852 -60.069)" fill="#e8866b"/>
    <path id="Path_1114" data-name="Path 1114" d="M552.609,113.838l1.168.054a1.311,1.311,0,1,0-.348-2.577l-1.133.232a1.159,1.159,0,0,0-.838,1.284,1.177,1.177,0,0,0,1.15,1.008Z" transform="translate(-108.192 -60.105)" fill="#e8866b"/>
    <path id="Path_1115" data-name="Path 1115" d="M572.259,85.232c-.892,5.77,4.726,6.34,3.514,9.988-1.507,4.53.125,6.581,2.8,9.462.669.722,1.784.473,2.8.526,1.284.062,2.577-.624,3.835-.312,1.008-6,1.864-12.146.829-18.139-.5-2.916-7.348-9.506-7.669-9.6s-23.864-2.6-27.35,1.213c-2.675,2.934-3.772,7.009-4.04,10.969-.116,1.677.294,3.763,2.354,3.433,1.784-.294,3.754-1.971,5.458-1.284,4.726,1.917,4.111-5.021,10.166-3.184C568.505,89.406,571.582,85.839,572.259,85.232Z" transform="translate(-107.706 -56.317)" fill="#fb2d5d"/>
    <path id="Path_1116" data-name="Path 1116" d="M585.387,102.728c1.989,1.293,1.989,3.879,1.409,6.028a5.877,5.877,0,0,1-5.021,4.138c-2.952.125-2.568-3.362-2.381-5.351C579.921,101.935,583.1,101.248,585.387,102.728Z" transform="translate(-111.203 -59.107)" fill="#e89e85"/>
    <path id="Path_1117" data-name="Path 1117" d="M565.65,105.714c0,1.3.615,2.363,1.373,2.363s1.382-1.061,1.382-2.363-.615-2.354-1.382-2.354S565.65,104.439,565.65,105.714Z" transform="translate(-109.729 -59.249)" fill="#090d46"/>
    <path id="Path_1118" data-name="Path 1118" d="M553.07,105.714c0,1.3.615,2.363,1.382,2.363s1.373-1.061,1.373-2.363-.615-2.354-1.373-2.354S553.07,104.439,553.07,105.714Z" transform="translate(-108.368 -59.249)" fill="#090d46"/>
    <path id="Path_1119" data-name="Path 1119" d="M582.135,104.4a2.131,2.131,0,0,1,2.764-.232,3.371,3.371,0,0,1,1.32,3.148c-.089,1.329-1.026,4.521-2.845,4.084a.374.374,0,0,1-.223-.535c.33-.419.794-.651,1.115-1.088a4.755,4.755,0,0,0,.669-1.561c.383-1.418-.125-4.548-2.292-3.157a.419.419,0,0,1-.508-.66Z" transform="translate(-111.499 -59.293)" fill="#d18774"/>
    <path id="Path_1120" data-name="Path 1120" d="M581.416,107.135c1.026-.366,2.033.089,2.033,1.275a2.47,2.47,0,0,1-1.783,2.435.348.348,0,0,1-.268-.633,2.961,2.961,0,0,0,1.034-1.614c.125-.615-.169-.74-.731-.571s-.811-.7-.25-.892Z" transform="translate(-111.405 -59.644)" fill="#d18774"/>
    <path id="Path_1121" data-name="Path 1121" d="M559.619,106.891a20.386,20.386,0,0,1-2,8.142c-.178.4,0,.99.544.954a18.017,18.017,0,0,1,2.5.134.437.437,0,0,0,.214-.8,6.144,6.144,0,0,0-2.675-.6c.187.312.366.633.553.954,1.186-2.773,2.55-5.85,1.784-8.918a.473.473,0,0,0-.892.125Z" transform="translate(-108.853 -59.587)" fill="#d18774"/>
    <path id="Path_1122" data-name="Path 1122" d="M557.57,120.75c2.845,1.391,6.189,1.311,8.374-1.231a.5.5,0,0,0-.6-.776,20.539,20.539,0,0,1-3.023,1.7,7.41,7.41,0,0,1-4.459-.473c-.455-.134-.767.562-.33.776Z" transform="translate(-108.828 -60.908)" fill="#d18774"/>
    <path id="Path_1123" data-name="Path 1123" d="M564.723,98.935c.713-.205,1.293-.7,2.051-.892,1.382-.33,2.363.232,3.567.892a.366.366,0,0,0,.437-.571,3.959,3.959,0,0,0-3.754-1.293,4.37,4.37,0,0,0-2.72,1.311.392.392,0,0,0,.437.571Z" transform="translate(-109.578 -58.56)" fill="#fb2d5d"/>
    <path id="Path_1124" data-name="Path 1124" d="M557.49,98.36a4.352,4.352,0,0,0-2.675-1.311,3.959,3.959,0,0,0-3.826,1.293.366.366,0,0,0,.437.571c1.186-.633,2.167-1.195,3.567-.892.749.178,1.329.678,2.042.892a.392.392,0,0,0,.437-.571Z" transform="translate(-108.132 -58.556)" fill="#fb2d5d"/>
    <path id="Path_1125" data-name="Path 1125" d="M578.815,83.876c-1.293,2.176-.08,4.744,1.784,5.939a4.985,4.985,0,0,1,2.568,4.851c0,1.552-1.052,3.665.7,4.557a.357.357,0,0,0,.481-.49c-1.418-2.533.589-5.77-1.391-8.293-1.489-1.891-5.306-2.675-3.451-6.162a.4.4,0,0,0-.7-.4Z" transform="translate(-111.096 -57.118)" fill="#fc4777"/>
    <path id="Path_1126" data-name="Path 1126" d="M582.393,82.025c1.587.7,3.567,1.338,4.459,2.97,1.168,2.069.357,5.449,1.07,7.83.954,3.2,4.227,5.85,2.622,9.23-.232.482.375,1.052.794.606,3.041-3.291-1.382-6.9-2.345-10.13-.892-2.907.482-6.323-1.561-8.811-1.213-1.462-2.97-1.944-4.682-2.533-.482-.169-.829.624-.357.838Z" transform="translate(-111.517 -56.846)" fill="#fc4777"/>
    <path id="Path_1127" data-name="Path 1127" d="M547.981,87.393c4.164,2.229,6.242-.321,9.444-2.408,2.408-1.578,4.459.339,6.974-.107s4.245-3.71,7.018-2.247a.374.374,0,0,0,.374-.642,3.273,3.273,0,0,0-3.148-.455c-2.756.82-2.97,2.934-6.688,2.345-1.677-.259-2.675-.954-4.236-.169-3.433,1.694-4.459,5.351-9.426,3.148C547.936,86.706,547.624,87.2,547.981,87.393Z" transform="translate(-107.8 -56.863)" fill="#fc4777"/>
    <path id="Path_1128" data-name="Path 1128" d="M550.3,79.939c1.382.8,3.166,1.784,4.833,1.427,1.061-.223,1.195-.606,2.069-1.168,2.22-1.418,3.362-2.283,5.966-1.471,4.708,1.462,4.771-4.8,10.023-2.408.223.1.517-.2.285-.375-3.96-3.059-4.994,1.008-8.276,1.926-1.882.535-3.139-1-5.056-.7a4.575,4.575,0,0,0-1.694.74c-1.685,1.1-1.409,1.632-3.621,2.14a4.7,4.7,0,0,1-4.209-.66.321.321,0,0,0-.321.553Z" transform="translate(-108.054 -56.16)" fill="#fc4777"/>
    <path id="Path_1129" data-name="Path 1129" d="M587.577,115.447c-.892,1.1-1.614,2.319-.6,3.567.892,1.043,2.158,1.231,2.488,2.773s-.5,2.889-.66,4.352a.322.322,0,0,0,.589.161,6.3,6.3,0,0,0,.892-5.03,3.693,3.693,0,0,0-.972-1.65c-1.088-1.052-2.675-1.668-1.124-3.71.259-.339-.321-.785-.589-.455Z" transform="translate(-111.984 -60.545)" fill="#fc4777"/>
    <path id="Path_1130" data-name="Path 1130" d="M593.754,109.718c-3.005,2.836-2.283,5-.366,7.955,1.355,2.1.767,4.12.134,6.394a6.733,6.733,0,0,0-.482,2.568c.178,1.659,1.356,2.791,2.613,3.79a.455.455,0,0,0,.642-.642c-.892-1.061-2.122-1.962-2.274-3.567a22.412,22.412,0,0,1,1.026-3.121,5.733,5.733,0,0,0,.437-3.478c-.945-3.835-5.823-4.78-1.257-9.444a.339.339,0,0,0-.473-.482Z" transform="translate(-112.551 -59.926)" fill="#fc4777"/>
    <path id="Path_1131" data-name="Path 1131" d="M546.887,114.351a14.725,14.725,0,0,1-1.026-1.632c-1.195-2.515-.624-3.745.508-5.939.687-1.32,1.552-2.47,1.721-4,.285-2.559-1.257-5.092-2.435-7.241-.143-.268-.624-.08-.508.214,1.177,3.032,2.675,5.591,1.489,9.034-.5,1.48-1.962,2.542-2.31,4.111a6.5,6.5,0,0,0,2.149,5.779c.214.205.589-.053.41-.321Z" transform="translate(-107.41 -58.388)" fill="#fc4777"/>
    <path id="Path_1132" data-name="Path 1132" d="M548.181,123.575c.125,2.6-2.809,6.867.259,8.793.33.205.82-.223.562-.562-1.935-2.586,0-5.4-.428-8.285,0-.232-.4-.178-.392.053Z" transform="translate(-107.714 -61.415)" fill="#fc4777"/>
    <path id="Path_1133" data-name="Path 1133" d="M551.641,126.586c-.508,1.275-.526,3.264.722,4.138.223.152.464-.1.419-.33-.116-.562-.384-1.079-.49-1.641a4.457,4.457,0,0,1,.089-1.962.384.384,0,0,0-.74-.205Z" transform="translate(-108.178 -61.732)" fill="#fc4777"/>
  </g>
</svg>
